solid OpenSCAD_Model
  facet normal -1 0 0
    outer loop
      vertex 0 0 0
      vertex 0 5.5 0.375
      vertex 0 5.5 0
    endloop
  endfacet
  facet normal -1 -0 0
    outer loop
      vertex 0 5.5 0.375
      vertex 0 0 0
      vertex 0 0 0.375
    endloop
  endfacet
  facet normal -0 0 1
    outer loop
      vertex 0 5.5 0.375
      vertex 4 0 0.375
      vertex 4 5.5 0.375
    endloop
  endfacet
  facet normal 0 0 1
    outer loop
      vertex 4 0 0.375
      vertex 0 5.5 0.375
      vertex 0 0 0.375
    endloop
  endfacet
  facet normal 1 -0 0
    outer loop
      vertex 4 0 0.375
      vertex 4 5.5 0
      vertex 4 5.5 0.375
    endloop
  endfacet
  facet normal 1 0 0
    outer loop
      vertex 4 5.5 0
      vertex 4 0 0.375
      vertex 4 0 0
    endloop
  endfacet
  facet normal 0 1 -0
    outer loop
      vertex 4 5.5 0
      vertex 0 5.5 0.375
      vertex 4 5.5 0.375
    endloop
  endfacet
  facet normal 0 1 0
    outer loop
      vertex 0 5.5 0.375
      vertex 4 5.5 0
      vertex 0 5.5 0
    endloop
  endfacet
  facet normal 0 0 -1
    outer loop
      vertex 4 0 0
      vertex 3.875 0.125 0
      vertex 4 5.5 0
    endloop
  endfacet
  facet normal 0 0 -1
    outer loop
      vertex 4 0 0
      vertex 0.125 0.125 0
      vertex 3.875 0.125 0
    endloop
  endfacet
  facet normal -0 0 -1
    outer loop
      vertex 0.125 0.125 0
      vertex 0 0 0
      vertex 0.125 5.375 0
    endloop
  endfacet
  facet normal 0 0 -1
    outer loop
      vertex 0 0 0
      vertex 0.125 0.125 0
      vertex 4 0 0
    endloop
  endfacet
  facet normal 0 0 -1
    outer loop
      vertex 3.875 5.375 0
      vertex 4 5.5 0
      vertex 3.875 0.125 0
    endloop
  endfacet
  facet normal 0 0 -1
    outer loop
      vertex 0.125 5.375 0
      vertex 4 5.5 0
      vertex 3.875 5.375 0
    endloop
  endfacet
  facet normal 0 0 -1
    outer loop
      vertex 0.125 5.375 0
      vertex 0 5.5 0
      vertex 4 5.5 0
    endloop
  endfacet
  facet normal 0 0 -1
    outer loop
      vertex 0 5.5 0
      vertex 0.125 5.375 0
      vertex 0 0 0
    endloop
  endfacet
  facet normal 0 -1 0
    outer loop
      vertex 0 0 0
      vertex 4 0 0.375
      vertex 0 0 0.375
    endloop
  endfacet
  facet normal 0 -1 -0
    outer loop
      vertex 4 0 0.375
      vertex 0 0 0
      vertex 4 0 0
    endloop
  endfacet
  facet normal 1 -0 0
    outer loop
      vertex 0.125 0.125 0.25
      vertex 0.125 5.375 0
      vertex 0.125 5.375 0.25
    endloop
  endfacet
  facet normal 1 0 0
    outer loop
      vertex 0.125 5.375 0
      vertex 0.125 0.125 0.25
      vertex 0.125 0.125 0
    endloop
  endfacet
  facet normal 0 0 -1
    outer loop
      vertex 0.125 0.125 0.25
      vertex 3.875 5.375 0.25
      vertex 3.875 0.125 0.25
    endloop
  endfacet
  facet normal -0 0 -1
    outer loop
      vertex 3.875 5.375 0.25
      vertex 0.125 0.125 0.25
      vertex 0.125 5.375 0.25
    endloop
  endfacet
  facet normal -1 0 0
    outer loop
      vertex 3.875 0.125 0
      vertex 3.875 5.375 0.25
      vertex 3.875 5.375 0
    endloop
  endfacet
  facet normal -1 -0 0
    outer loop
      vertex 3.875 5.375 0.25
      vertex 3.875 0.125 0
      vertex 3.875 0.125 0.25
    endloop
  endfacet
  facet normal 0 1 -0
    outer loop
      vertex 3.875 0.125 0
      vertex 0.125 0.125 0.25
      vertex 3.875 0.125 0.25
    endloop
  endfacet
  facet normal 0 1 0
    outer loop
      vertex 0.125 0.125 0.25
      vertex 3.875 0.125 0
      vertex 0.125 0.125 0
    endloop
  endfacet
  facet normal 0 -1 0
    outer loop
      vertex 0.125 5.375 0
      vertex 3.875 5.375 0.25
      vertex 0.125 5.375 0.25
    endloop
  endfacet
  facet normal 0 -1 -0
    outer loop
      vertex 3.875 5.375 0.25
      vertex 0.125 5.375 0
      vertex 3.875 5.375 0
    endloop
  endfacet
endsolid OpenSCAD_Model
